<svg width="360" height="360" viewBox="0 0 360 360" fill="none" xmlns="http://www.w3.org/2000/svg">
<path fill-rule="evenodd" clip-rule="evenodd" d="M201.392 2.18147C200.588 3.41947 196.176 11.4065 191.587 19.9315L183.243 35.4315L175.775 36.1135C170.363 36.6085 167.756 36.4395 166.307 35.5005C165.207 34.7875 159.609 27.3965 153.866 19.0745C148.124 10.7535 142.602 3.68347 141.596 3.36447C139.118 2.57747 105.891 13.8925 104.865 15.8725C104.421 16.7295 104.731 25.3975 105.553 35.1335C106.375 44.8685 106.772 53.8685 106.435 55.1335C105.709 57.8555 94.2693 65.9315 91.1383 65.9315C89.9593 65.9315 81.4383 62.7615 72.2033 58.8875C62.9683 55.0135 54.5213 51.9765 53.4333 52.1375C50.9453 52.5075 29.8073 78.5655 29.8073 81.2635C29.8073 82.3415 34.6903 89.7965 40.6573 97.8285C46.6253 105.859 51.8193 112.98 52.1983 113.652C53.1573 115.346 47.0733 129.977 44.3683 132.484C42.6823 134.047 38.2343 135.215 25.7303 137.378C7.73726 140.491 4.21126 141.435 3.48126 143.339C2.53226 145.81 -0.493738 176.705 0.0692623 178.172C0.394262 179.017 8.23526 182.381 18.2113 185.953C27.8753 189.414 36.4923 193.03 37.3613 193.99C38.8913 195.681 41.7013 208.565 41.7723 214.215C41.8003 216.438 40.0543 218.651 33.0923 225.215C16.6433 240.722 12.8073 244.566 12.8513 245.498C12.8753 246.011 16.3623 253.181 20.6013 261.431C27.3383 274.546 28.6393 276.469 30.9483 276.737C32.4013 276.905 40.4553 275.443 48.8463 273.487C57.2373 271.531 65.5513 269.931 67.3223 269.931C70.0433 269.931 71.7243 271.17 78.1743 277.921C82.3723 282.315 85.8073 286.68 85.8073 287.622C85.8073 288.564 83.7113 297.594 81.1483 307.688C77.1463 323.457 76.6883 326.238 77.8983 327.431C80.0463 329.548 106.1 343.926 107.794 343.929C108.613 343.93 115.669 337.555 123.476 329.762L137.67 315.594L148.829 317.936C157.434 319.741 160.293 320.753 161.321 322.354C162.055 323.496 165.014 331.631 167.897 340.431C170.78 349.231 173.809 357.218 174.628 358.181C176.434 360.304 180.565 360.41 197.648 358.77C208.325 357.745 210.164 357.304 211.294 355.507C212.012 354.365 214.234 345.556 216.232 335.931C218.628 324.384 220.45 317.879 221.585 316.807C223.33 315.162 238.899 308.931 241.265 308.931C241.973 308.931 249.247 314.325 257.429 320.918C265.612 327.51 272.989 332.91 273.823 332.918C275.686 332.934 301.417 313.529 302.69 311.147C303.357 309.898 301.69 304.313 296.57 290.642L289.534 271.853L294.421 264.757C297.108 260.854 300.207 257.087 301.307 256.389C302.945 255.348 306.709 255.49 322.126 257.171C338.398 258.945 341.138 259.029 342.368 257.799C344.44 255.727 355.537 224.511 354.871 222.627C354.561 221.749 347.22 215.8 338.557 209.408L322.807 197.785V189.549C322.807 184.475 323.287 180.703 324.057 179.724C324.745 178.85 332.582 174.468 341.474 169.986C350.366 165.503 358.212 161.148 358.908 160.309C359.942 159.064 359.764 156.902 357.949 148.606C356.725 143.01 354.99 135.056 354.094 130.931C353.199 126.806 351.978 122.883 351.383 122.213C350.697 121.442 344.07 120.577 333.303 119.856C309.733 118.275 309.472 118.19 305.801 110.919C304.154 107.657 302.807 104.36 302.807 103.593C302.807 102.826 307.106 94.8845 312.361 85.9445C317.615 77.0045 321.778 68.9045 321.611 67.9455C321.444 66.9855 315.697 60.2905 308.839 53.0665C299.764 43.5055 295.734 39.9315 294.029 39.9315C292.74 39.9315 284.417 43.9815 275.533 48.9315C266.649 53.8815 258.688 57.9275 257.843 57.9225C255.988 57.9105 246.668 52.6735 245.064 50.7405C244.352 49.8835 243.65 42.0645 243.208 30.0635C242.696 16.1605 242.127 10.3945 241.171 9.43847C240.442 8.70947 233.649 6.69047 226.076 4.95247C218.503 3.21447 211.002 1.37347 209.408 0.862474C204.915 -0.579526 202.978 -0.261526 201.392 2.18147ZM201.531 76.5535C214.216 79.0965 228.283 85.1365 239.994 93.0685C262.599 108.378 280.25 136.452 283.709 162.594C285.473 175.921 285.551 178.11 284.654 188.931C282.158 219.024 266.773 246.336 241.807 264.995C235.032 270.058 221.487 276.946 212.807 279.741C173.892 292.273 131.124 281.474 103.74 252.2C73.5193 219.894 66.3893 172.922 85.7153 133.454C106.933 90.1215 153.961 67.0165 201.531 76.5535Z" fill="#009EF9"/>
</svg>
